<svg width="852" height="212" viewBox="0 0 852 212" fill="none" xmlns="http://www.w3.org/2000/svg">
<path fill-rule="evenodd" clip-rule="evenodd" d="M113.473 0C110.322 0 107.768 2.55437 107.768 5.70535V206.295C107.768 209.446 110.322 212 113.473 212C116.624 212 119.179 209.446 119.179 206.295V5.70536C119.179 2.55438 116.624 0 113.473 0ZM86.2143 35.9911C86.2143 32.8401 88.7687 30.2857 91.9196 30.2857C95.0706 30.2857 97.625 32.8401 97.625 35.9911V206.295C97.625 209.446 95.0706 212 91.9196 212C88.7687 212 86.2143 209.446 86.2143 206.295V35.9911ZM5.70536 41.102C2.55438 41.102 0 43.6564 0 46.8074V206.295C0 209.446 2.55438 212 5.70536 212C8.85634 212 11.4107 209.446 11.4107 206.295V46.8074C11.4107 43.6564 8.85634 41.102 5.70536 41.102ZM27.2589 114.653C24.1079 114.653 21.5536 117.207 21.5536 120.358V206.295C21.5536 209.446 24.1079 212 27.2589 212C30.4099 212 32.9643 209.446 32.9643 206.295V120.358C32.9643 117.207 30.4099 114.653 27.2589 114.653ZM43.1071 64.1135C43.1071 60.9625 45.6615 58.4082 48.8125 58.4082C51.9635 58.4082 54.5179 60.9625 54.5179 64.1135V206.295C54.5179 209.446 51.9635 212 48.8125 212C45.6615 212 43.1071 209.446 43.1071 206.295V64.1135ZM70.3661 95.1837C67.2151 95.1837 64.6607 97.738 64.6607 100.889V206.295C64.6607 209.446 67.2151 212 70.3661 212C73.5171 212 76.0714 209.446 76.0714 206.295V100.889C76.0714 97.738 73.5171 95.1837 70.3661 95.1837ZM129.321 57.6237C129.321 54.4727 131.876 51.9184 135.027 51.9184C138.178 51.9184 140.732 54.4727 140.732 57.6237V206.295C140.732 209.446 138.178 212 135.027 212C131.876 212 129.321 209.446 129.321 206.295V57.6237ZM156.58 21.6327C153.429 21.6327 150.875 24.187 150.875 27.338V206.295C150.875 209.446 153.429 212 156.58 212C159.731 212 162.286 209.446 162.286 206.295V27.338C162.286 24.187 159.731 21.6327 156.58 21.6327ZM172.429 81.4196C172.429 78.2687 174.983 75.7143 178.134 75.7143C181.285 75.7143 183.839 78.2687 183.839 81.4196V206.295C183.839 209.446 181.285 212 178.134 212C174.983 212 172.429 209.446 172.429 206.295V81.4196ZM199.688 10.8163C196.537 10.8163 193.982 13.3707 193.982 16.5217V206.295C193.982 209.446 196.537 212 199.688 212C202.838 212 205.393 209.446 205.393 206.295V16.5217C205.393 13.3707 202.838 10.8163 199.688 10.8163ZM215.536 126.848C215.536 123.697 218.09 121.143 221.241 121.143C224.392 121.143 226.946 123.697 226.946 126.848V206.295C226.946 209.446 224.392 212 221.241 212C218.09 212 215.536 209.446 215.536 206.295V126.848ZM242.795 30.2857C239.644 30.2857 237.089 32.8401 237.089 35.9911V206.295C237.089 209.446 239.644 212 242.795 212C245.946 212 248.5 209.446 248.5 206.295V35.9911C248.5 32.8401 245.946 30.2857 242.795 30.2857ZM258.643 64.1135C258.643 60.9625 261.197 58.4082 264.348 58.4082C267.499 58.4082 270.054 60.9625 270.054 64.1135V206.295C270.054 209.446 267.499 212 264.348 212C261.197 212 258.643 209.446 258.643 206.295V64.1135ZM285.902 21.6327C282.751 21.6327 280.196 24.187 280.196 27.338V206.295C280.196 209.446 282.751 212 285.902 212C289.053 212 291.607 209.446 291.607 206.295V27.338C291.607 24.187 289.053 21.6327 285.902 21.6327ZM301.75 81.4196C301.75 78.2687 304.304 75.7143 307.455 75.7143C310.606 75.7143 313.161 78.2687 313.161 81.4196V206.295C313.161 209.446 310.606 212 307.455 212C304.304 212 301.75 209.446 301.75 206.295V81.4196ZM329.009 30.2857C325.858 30.2857 323.304 32.8401 323.304 35.9911V206.295C323.304 209.446 325.858 212 329.009 212C332.16 212 334.714 209.446 334.714 206.295V35.9911C334.714 32.8401 332.16 30.2857 329.009 30.2857ZM344.857 5.70535C344.857 2.55437 347.412 0 350.562 0C353.714 0 356.268 2.55438 356.268 5.70536V206.295C356.268 209.446 353.714 212 350.562 212C347.412 212 344.857 209.446 344.857 206.295V5.70535ZM372.116 10.8163C368.965 10.8163 366.411 13.3707 366.411 16.5217V206.295C366.411 209.446 368.965 212 372.116 212C375.267 212 377.821 209.446 377.821 206.295V16.5217C377.821 13.3707 375.267 10.8163 372.116 10.8163ZM387.964 46.8074C387.964 43.6564 390.519 41.102 393.67 41.102C396.821 41.102 399.375 43.6564 399.375 46.8074V206.295C399.375 209.446 396.821 212 393.67 212C390.519 212 387.964 209.446 387.964 206.295V46.8074ZM415.223 114.653C412.072 114.653 409.518 117.207 409.518 120.358V206.295C409.518 209.446 412.072 212 415.223 212C418.374 212 420.929 209.446 420.929 206.295V120.358C420.929 117.207 418.374 114.653 415.223 114.653ZM431.071 57.6237C431.071 54.4727 433.626 51.9184 436.777 51.9184C439.928 51.9184 442.482 54.4727 442.482 57.6237V206.295C442.482 209.446 439.928 212 436.777 212C433.626 212 431.071 209.446 431.071 206.295V57.6237ZM458.33 95.1837C455.179 95.1837 452.625 97.738 452.625 100.889V206.295C452.625 209.446 455.179 212 458.33 212C461.481 212 464.036 209.446 464.036 206.295V100.889C464.036 97.738 461.481 95.1837 458.33 95.1837ZM474.179 35.9911C474.179 32.8401 476.733 30.2857 479.884 30.2857C483.035 30.2857 485.589 32.8401 485.589 35.9911V206.295C485.589 209.446 483.035 212 479.884 212C476.733 212 474.179 209.446 474.179 206.295V35.9911ZM501.438 69.2245C498.287 69.2245 495.732 71.7789 495.732 74.9298V206.295C495.732 209.446 498.287 212 501.438 212C504.589 212 507.143 209.446 507.143 206.295V74.9298C507.143 71.7789 504.589 69.2245 501.438 69.2245ZM517.286 27.338C517.286 24.187 519.84 21.6327 522.991 21.6327C526.142 21.6327 528.696 24.187 528.696 27.338V206.295C528.696 209.446 526.142 212 522.991 212C519.84 212 517.286 209.446 517.286 206.295V27.338ZM544.545 58.4082C541.394 58.4082 538.839 60.9625 538.839 64.1135V206.295C538.839 209.446 541.394 212 544.545 212C547.696 212 550.25 209.446 550.25 206.295V64.1135C550.25 60.9625 547.696 58.4082 544.545 58.4082ZM560.393 120.358C560.393 117.207 562.947 114.653 566.098 114.653C569.249 114.653 571.804 117.207 571.804 120.358V206.295C571.804 209.446 569.249 212 566.098 212C562.947 212 560.393 209.446 560.393 206.295V120.358ZM587.652 41.102C584.501 41.102 581.946 43.6564 581.946 46.8074V206.295C581.946 209.446 584.501 212 587.652 212C590.803 212 593.357 209.446 593.357 206.295V46.8074C593.357 43.6564 590.803 41.102 587.652 41.102ZM603.5 74.9298C603.5 71.7789 606.054 69.2245 609.205 69.2245C612.356 69.2245 614.911 71.7789 614.911 74.9298V206.295C614.911 209.446 612.356 212 609.205 212C606.054 212 603.5 209.446 603.5 206.295V74.9298ZM630.759 21.6327C627.608 21.6327 625.054 24.187 625.054 27.338V206.295C625.054 209.446 627.608 212 630.759 212C633.91 212 636.464 209.446 636.464 206.295V27.338C636.464 24.187 633.91 21.6327 630.759 21.6327ZM646.607 5.70535C646.607 2.55437 649.161 0 652.312 0C655.463 0 658.018 2.55438 658.018 5.70536V206.295C658.018 209.446 655.463 212 652.312 212C649.161 212 646.607 209.446 646.607 206.295V5.70535ZM673.866 30.2857C670.715 30.2857 668.161 32.8401 668.161 35.9911V206.295C668.161 209.446 670.715 212 673.866 212C677.017 212 679.571 209.446 679.571 206.295V35.9911C679.571 32.8401 677.017 30.2857 673.866 30.2857ZM689.714 57.6237C689.714 54.4727 692.269 51.9184 695.42 51.9184C698.571 51.9184 701.125 54.4727 701.125 57.6237V206.295C701.125 209.446 698.571 212 695.42 212C692.269 212 689.714 209.446 689.714 206.295V57.6237ZM716.973 84.3673C713.822 84.3673 711.268 86.9217 711.268 90.0727V206.295C711.268 209.446 713.822 212 716.973 212C720.124 212 722.679 209.446 722.679 206.295V90.0727C722.679 86.9217 720.124 84.3673 716.973 84.3673ZM732.821 46.8074C732.821 43.6564 735.376 41.102 738.527 41.102C741.678 41.102 744.232 43.6564 744.232 46.8074V206.295C744.232 209.446 741.678 212 738.527 212C735.376 212 732.821 209.446 732.821 206.295V46.8074ZM760.08 0C756.929 0 754.375 2.55437 754.375 5.70535V206.295C754.375 209.446 756.929 212 760.08 212C763.231 212 765.786 209.446 765.786 206.295V5.70536C765.786 2.55438 763.231 0 760.08 0ZM775.929 5.70535C775.929 2.55437 778.483 0 781.634 0C784.785 0 787.339 2.55438 787.339 5.70536V206.295C787.339 209.446 784.785 212 781.634 212C778.483 212 775.929 209.446 775.929 206.295V5.70535ZM803.188 21.6327C800.036 21.6327 797.482 24.187 797.482 27.338V206.295C797.482 209.446 800.036 212 803.188 212C806.338 212 808.893 209.446 808.893 206.295V27.338C808.893 24.187 806.338 21.6327 803.188 21.6327ZM819.036 57.6237C819.036 54.4727 821.59 51.9184 824.741 51.9184C827.892 51.9184 830.446 54.4727 830.446 57.6237V206.295C830.446 209.446 827.892 212 824.741 212C821.59 212 819.036 209.446 819.036 206.295V57.6237ZM846.295 121.143C843.144 121.143 840.589 123.697 840.589 126.848V206.295C840.589 209.446 843.144 212 846.295 212C849.446 212 852 209.446 852 206.295V126.848C852 123.697 849.446 121.143 846.295 121.143Z" fill="url(#paint0_linear_5_3)"/>
<defs>
<linearGradient id="paint0_linear_5_3" x1="0" y1="106" x2="852" y2="106" gradientUnits="userSpaceOnUse">
<stop stop-color="#FF3B30"/>
<stop offset="0.25" stop-color="#FFD60A"/>
<stop offset="0.5" stop-color="#34C759"/>
<stop offset="0.75" stop-color="#0A84FF"/>
<stop offset="1" stop-color="#AF52DE"/>
</linearGradient>
</defs>
</svg>
